<svg width="2528" height="37" viewBox="0 0 2528 37" fill="none" xmlns="http://www.w3.org/2000/svg">
<path d="M7.5 20.2039L9.59911 18.1047C23.7374 3.96587 46.6606 3.96563 60.7991 18.1042C74.9374 32.2425 97.8604 32.2423 111.999 18.104C126.137 3.96559 149.06 3.96544 163.199 18.1039C177.337 32.2424 200.261 32.2423 214.399 18.1039C228.537 3.96546 251.46 3.96543 265.599 18.1039C279.737 32.2424 302.66 32.2424 316.799 18.1039C330.937 3.96546 353.86 3.96543 367.999 18.1039C382.137 32.2424 405.06 32.2424 419.199 18.1039C433.337 3.96542 456.26 3.96542 470.399 18.1039C484.537 32.2424 507.46 32.2424 521.599 18.1039C535.737 3.96542 558.66 3.96543 572.799 18.1039C586.937 32.2424 609.86 32.2424 623.999 18.1039C638.137 3.96542 661.06 3.96543 675.199 18.1039C689.337 32.2424 712.26 32.2424 726.399 18.1039C740.537 3.96543 763.46 3.96542 777.599 18.1039C791.737 32.2424 814.66 32.2424 828.799 18.1039C842.937 3.96543 865.86 3.96542 879.999 18.1039C894.137 32.2424 917.06 32.2424 931.199 18.1039C945.337 3.96543 968.26 3.96551 982.399 18.104C996.537 32.2424 1019.46 32.2422 1033.6 18.1039C1047.74 3.96564 1070.66 3.96538 1084.8 18.1038C1098.94 32.2423 1121.86 32.2424 1136 18.1039C1150.14 3.96542 1173.06 3.96544 1187.2 18.1039C1201.34 32.2424 1224.26 32.2424 1238.4 18.1039C1252.54 3.96543 1275.46 3.96543 1289.6 18.1039C1303.74 32.2424 1326.66 32.2424 1340.8 18.1039C1354.94 3.96544 1377.86 3.96542 1392 18.1039C1406.14 32.2424 1429.06 32.2424 1443.2 18.1039C1457.34 3.96543 1480.26 3.96541 1494.4 18.1039C1508.54 32.2424 1531.46 32.2424 1545.6 18.1039C1559.74 3.96541 1582.66 3.96543 1596.8 18.1039C1610.94 32.2424 1633.86 32.2424 1648 18.1039C1662.14 3.96542 1685.06 3.96544 1699.2 18.1039C1713.34 32.2424 1736.26 32.2424 1750.4 18.1039C1764.54 3.96543 1787.46 3.96543 1801.6 18.1039C1815.74 32.2424 1838.66 32.2424 1852.8 18.1039C1866.94 3.96544 1889.86 3.96542 1904 18.1039C1918.14 32.2424 1941.06 32.2424 1955.2 18.1039C1969.34 3.96543 1992.26 3.96542 2006.4 18.1039C2020.54 32.2424 2043.46 32.2424 2057.6 18.1039C2071.74 3.96542 2094.66 3.96544 2108.8 18.1039C2122.94 32.2424 2145.86 32.2424 2160 18.1039C2174.14 3.96546 2197.06 3.96541 2211.2 18.1039C2225.34 32.2424 2248.26 32.2424 2262.4 18.1039C2276.54 3.96542 2299.46 3.96542 2313.6 18.1039C2327.74 32.2424 2350.66 32.2424 2364.8 18.1039C2378.94 3.96541 2401.86 3.96546 2416 18.1039C2430.14 32.2424 2453.06 32.2424 2467.2 18.1039C2481.34 3.96543 2504.26 3.96543 2518.4 18.1039L2519.8 19.5039" stroke="white" stroke-width="15" stroke-linecap="round"/>
</svg>
